<svg width="62" height="62" viewBox="0 0 62 62" fill="none" xmlns="http://www.w3.org/2000/svg">
<path d="M30.999 0.646484C13.881 0.646484 0 14.5795 0 31.7715C0 45.5205 8.881 57.1865 21.204 61.3015C22.753 61.5885 23.318 60.6275 23.318 59.8015C23.318 59.0635 23.291 57.1065 23.276 54.5085C14.651 56.3915 12.832 50.3365 12.832 50.3365C11.424 46.7405 9.392 45.7855 9.392 45.7855C6.576 43.8535 9.604 43.8905 9.604 43.8905C12.714 44.1095 14.351 47.0995 14.351 47.0995C17.119 51.8555 21.609 50.4805 23.375 49.6835C23.654 47.6735 24.457 46.3005 25.342 45.5235C18.46 44.7365 11.224 42.0685 11.224 30.1435C11.224 26.7465 12.431 23.9675 14.414 21.7895C14.093 21.0025 13.03 17.8395 14.716 13.5555C14.716 13.5555 17.32 12.7195 23.241 16.7455C25.714 16.0555 28.366 15.7105 31.003 15.6965C33.634 15.7105 36.288 16.0545 38.765 16.7455C44.681 12.7195 47.281 13.5555 47.281 13.5555C48.971 17.8395 47.908 21.0025 47.588 21.7895C49.576 23.9675 50.776 26.7455 50.776 30.1435C50.776 42.0985 43.528 44.7285 36.622 45.5005C37.735 46.4615 38.726 48.3595 38.726 51.2645C38.726 55.4265 38.689 58.7805 38.689 59.8015C38.689 60.6355 39.248 61.6045 40.82 61.2975C53.127 57.1745 62 45.5165 62 31.7715C62 14.5795 48.119 0.646484 30.999 0.646484Z" fill="#3E77BF"/>
<path d="M30.999 0.646484C13.881 0.646484 0 14.5795 0 31.7715C0 45.5205 8.881 57.1865 21.204 61.3015C22.753 61.5885 23.318 60.6275 23.318 59.8015C23.318 59.0635 23.291 57.1065 23.276 54.5085C14.651 56.3915 12.832 50.3365 12.832 50.3365C11.424 46.7405 9.392 45.7855 9.392 45.7855C6.576 43.8535 9.604 43.8905 9.604 43.8905C12.714 44.1095 14.351 47.0995 14.351 47.0995C17.119 51.8555 21.609 50.4805 23.375 49.6835C23.654 47.6735 24.457 46.3005 25.342 45.5235C18.46 44.7365 11.224 42.0685 11.224 30.1435C11.224 26.7465 12.431 23.9675 14.414 21.7895C14.093 21.0025 13.03 17.8395 14.716 13.5555C14.716 13.5555 17.32 12.7195 23.241 16.7455C25.714 16.0555 28.366 15.7105 31.003 15.6965C33.634 15.7105 36.288 16.0545 38.765 16.7455C44.681 12.7195 47.281 13.5555 47.281 13.5555C48.971 17.8395 47.908 21.0025 47.588 21.7895C49.576 23.9675 50.776 26.7455 50.776 30.1435C50.776 42.0985 43.528 44.7285 36.622 45.5005C37.735 46.4615 38.726 48.3595 38.726 51.2645C38.726 55.4265 38.689 58.7805 38.689 59.8015C38.689 60.6355 39.248 61.6045 40.82 61.2975C53.127 57.1745 62 45.5165 62 31.7715C62 14.5795 48.119 0.646484 30.999 0.646484Z" fill="#DFECF8"/>
<path d="M15.7966 48.9244C15.5976 48.6244 15.2246 48.1154 14.6836 47.6064C15.0346 48.1274 15.4076 48.5644 15.7966 48.9244Z" fill="#6CA9EA"/>
</svg>
